<svg xmlns="http://www.w3.org/2000/svg" width="200" height="200" viewBox="0 0 200 200">
<!-- SVG created with Arrow, by QuiverAI (https://quiver.ai) -->
  <path d="m103.3 17.71c-52.83 0-97.03 40.57-98.27 88.04-0.95 40.81 32.01 75.91 83.72 75.91 21.87 0 37.58-6.71 41.97-17.47 4.49-11.02-2.96-20.18 1.39-27.8 4.24-7.45 10.87-9.17 18.8-9.17 20.9 0 42.31-9.05 42.31-34.47 0-37.59-35.2-75.04-89.92-75.04z" fill="#AD7244" stroke="#000" stroke-miterlimit="10" stroke-width="5.714"/>
  <path d="m97.58 133.6c-10.67 0.33-17.71 8.47-17.54 15.29 0.15 7.16 6.67 12.56 14.76 12.31 10.13-0.33 18.46-8.51 18.17-15.5s-6.61-12.38-15.39-12.1z" fill="#fff" stroke="#000" stroke-miterlimit="10" stroke-width="5.714"/>
  <path d="m114.8 35.79c-10.59 0-17.27 8.3-17.27 13.72 0 4.78 3.34 7.87 8.1 9.04 2.36 0.59 3.35 2.13 4.29 3.84 1.78 2.87 5 4.52 8.88 4.52 5.64 0 9.52-4.23 9.75-8.59 0.11-1.66 1.54-2.49 2.75-3.33 2.53-1.65 2.93-3.48 2.65-6.02-0.72-6.09-9.11-13.18-19.15-13.18z" fill="#FFD600" stroke="#000" stroke-miterlimit="10" stroke-width="5.714"/>
  <path d="m68.97 43.31c-12.1 0-20.71 10.58-20.71 20.78 0 6.42 4.53 11.62 9.06 11.62 5.3 0 6.07-3.36 11.43-4.2 1.96-0.28 2.76 0.55 5.01 0 4.53-1.17 7.95-5.68 7.95-9.28 0-3.32-1.37-5.15-3.4-6.99-1.21-1.12-0.37-3.18-0.37-5.16 0-3.93-3.22-6.77-8.97-6.77z" fill="#2976D2" stroke="#000" stroke-miterlimit="10" stroke-width="5.714"/>
  <path d="m35.04 86.83c-6.93 0.67-12.98 9.46-12.98 18.27 0 9.41 7.15 18.25 14.95 18.25 5.92 0 9.2-5.01 9.54-8.57 0.4-3.67 2.06-4.84 2.71-5.23 2.93-1.84 4.25-5.29 3.36-10.47-0.71-3.82-4.31-6.85-7.63-6.68-2.65 0.11-3.86-1.49-4.96-3.32-0.94-1.55-2.71-2.45-4.99-2.25z" fill="#E9262A" stroke="#000" stroke-miterlimit="10" stroke-width="5.714"/>
  <path d="m153.8 65.32c-7.32 0-10.39 5.45-10.05 9.69 0.34 3.82 2.87 5.9 2.99 8.93 0.11 1.66-1.16 3.31-0.76 6.34 0.7 4.87 5.17 8.35 9.11 8.23 3.77-0.17 5.68-2.4 7.46-2.68 2.14-0.34 2.66 1.25 5.7 0.43 4.53-1.34 5.86-7.15 5.15-12.35-1.33-9.7-9.71-18.59-19.6-18.59z" fill="#27AE40" stroke="#000" stroke-miterlimit="10" stroke-width="5.714"/>
</svg>