<svg xmlns="http://www.w3.org/2000/svg" width="250" height="250" fill="none" viewBox="0 0 250 250">
<!-- SVG created with Arrow, by QuiverAI (https://quiver.ai) -->
  <path d="m235.5 14.15c-6.31-6.31-16.88-4.99-20.64 0.58l-5.63 6.38 19.5 19.5 7.86-8.55c5.04-5.12 4.11-12.78-1.09-17.91z" fill="#2D85CC" stroke="#000" stroke-linecap="round" stroke-linejoin="round" stroke-miterlimit="10" stroke-width="9"/>
  <path d="m230.1 62.29c-5.2-6.88-12.28-3.41-12.28-3.41l9.91-10.52 0.36 0.29-70.42 76.81c-0.87 0.94-2.3 1-3.24 0.14l-30.83-30.83c-0.94-0.94-0.89-2.51 0.05-3.51l68.05-69.7c5.56-5.78 13.99-4.25 17.49-0.45l19.2 19.2c5.5 5.5 5.8 12.58 0.81 18.41 6.11 4.99 6.51 14.3 0.3 20.51l-52.24 51.28" stroke="#000" stroke-linecap="round" stroke-linejoin="round" stroke-miterlimit="10" stroke-width="9"/>
  <path d="m156 126.3-32.29-32.29-88.2 90.94 27.96 29.02 92.53-87.67z" fill="#2D85CC" stroke="#000" stroke-linecap="round" stroke-linejoin="round" stroke-miterlimit="10" stroke-width="9"/>
  <path d="m123.7 91.26 68.56-69.2c5.3-5.62 13.48-4.8 17.54 0l18.28 18.28c5.18 5.18 5.23 12.55-0.3 18.32l-69.64 67.09c-0.94 0.95-2.46 0.89-3.4-0.05l-31.19-31.2c-0.84-0.84-0.79-2.36 0.15-3.24z" fill="#DB3832" stroke="#000" stroke-linecap="round" stroke-linejoin="round" stroke-miterlimit="10" stroke-width="9"/>
  <path d="m33.84 188-16.92 31.77c-3.91 7.33 1.46 14.75 10.87 13.02l34.22-16.72c1.78-0.83 3.06-2.02 3.65-3.16l-30.4-27.3c-0.54 0.68-1.07 1.61-1.42 2.39z" fill="#2D85CC" stroke="#000" stroke-linecap="round" stroke-linejoin="round" stroke-miterlimit="10" stroke-width="9"/>
  <path d="m10.38 239.4 7.42-8.01" stroke="#000" stroke-linecap="round" stroke-linejoin="round" stroke-miterlimit="10" stroke-width="9"/>
</svg>